<svg width="15" height="25" viewBox="0 0 15 25" fill="none" xmlns="http://www.w3.org/2000/svg">
<path d="M6 20.1H9.1C9.3 20.1 9.6 19.9 9.5 19.6V18.9C9.5 18.8 9.5 18.7 9.4 18.6C9.3 18.5 9.2 18.5 9.1 18.5H6C5.8 18.5 5.5 18.7 5.5 19V19.7C5.5 19.9 5.7 20.1 6 20.1ZM6.7 10.1H6C5.8 10.1 5.5 9.89995 5.5 9.59995V8.89996C5.5 8.59996 5.7 8.39996 6 8.39996H6.7V7.69995C6.7 7.49995 6.9 7.19995 7.2 7.19995H7.9C8.2 7.19995 8.4 7.39995 8.4 7.69995V8.39996H9.1C9.4 8.39996 9.6 8.59996 9.6 8.89996V9.59995C9.6 9.89995 9.4 10.1 9.2 10.1H8.5V10.8C8.5 11.1 8.3 11.3 8 11.3H7.3C7.1 11.3 6.8 11.1 6.8 10.8V10.1H6.7Z" fill="black"/>
<path d="M9.10039 20.2H6.00039C5.70039 20.2 5.40039 19.9 5.40039 19.6V18.9C5.40039 18.6 5.70039 18.3 6.00039 18.3H9.10039C9.30039 18.3 9.40039 18.4 9.50039 18.5C9.60039 18.6 9.70039 18.8 9.70039 18.9V19.6C9.70039 19.8 9.60039 19.9 9.50039 20C9.40039 20.1 9.20039 20.2 9.10039 20.2ZM6.00039 18.6C5.80039 18.6 5.70039 18.8 5.70039 18.9V19.6C5.70039 19.8 5.80039 19.9 6.00039 19.9H9.10039C9.20039 19.9 9.30039 19.9 9.30039 19.8C9.40039 19.7 9.40039 19.7 9.40039 19.6V18.9C9.40039 18.8 9.40039 18.7 9.30039 18.7C9.20039 18.6 9.20039 18.6 9.10039 18.6H6.00039ZM7.90039 11.4H7.20039C6.90039 11.4 6.60039 11.1 6.60039 10.8V10.2H6.00039C5.70039 10.2 5.40039 9.89998 5.40039 9.59998V8.89998C5.40039 8.59998 5.70039 8.29998 6.00039 8.29998H6.60039V7.69997C6.60039 7.39997 6.90039 7.09998 7.20039 7.09998H7.90039C8.20039 7.09998 8.50039 7.39997 8.50039 7.69997V8.29998H9.10039C9.40039 8.29998 9.70039 8.59998 9.70039 8.89998V9.59998C9.70039 9.79998 9.60039 9.89998 9.50039 9.99998C9.40039 10.1 9.20039 10.2 9.10039 10.2H8.50039V10.8C8.50039 11.1 8.20039 11.4 7.90039 11.4ZM6.00039 8.59998C5.80039 8.59998 5.70039 8.69998 5.70039 8.89998V9.59998C5.70039 9.79998 5.90039 9.89998 6.00039 9.89998H6.90039V10.8C6.90039 11 7.10039 11.1 7.20039 11.1H7.90039C8.10039 11.1 8.20039 10.9 8.20039 10.8V9.99998H9.10039C9.20039 9.99998 9.30039 9.99998 9.30039 9.89998C9.40039 9.79998 9.40039 9.79997 9.40039 9.69997V8.99998C9.40039 8.79998 9.30039 8.69997 9.10039 8.69997H8.20039V7.79998C8.20039 7.59998 8.00039 7.49998 7.90039 7.49998H7.20039C7.00039 7.49998 6.90039 7.69998 6.90039 7.79998V8.69997H6.00039V8.59998Z" fill="black"/>
<path d="M4.3 2.29996C4.3 1.49996 4.9 0.899963 5.7 0.899963H9.6C10.4 0.899963 11 1.49996 11 2.29996V2.49996H12.7C13 2.49996 13.3 2.59996 13.5 2.69996C13.8 2.79996 14 2.99996 14.2 3.19996C14.4 3.39996 14.6 3.69996 14.7 3.89996C14.8 4.19996 14.9 4.49996 14.9 4.69996V22.7C14.9 23 14.8 23.3 14.7 23.5C14.6 23.7 14.4 24 14.2 24.2C14 24.4 13.7 24.6 13.5 24.7C13.2 24.8 12.9 24.9 12.7 24.9H2.7C2.4 24.9 2.1 24.8 1.9 24.7C1.6 24.6 1.4 24.4 1.2 24.2C1 24 0.800001 23.8 0.700001 23.5C0.600001 23.2 0.5 22.9 0.5 22.7V4.69996C0.5 4.39996 0.600001 4.09996 0.700001 3.89996C0.800001 3.59996 1 3.39996 1.2 3.19996C1.4 2.99996 1.7 2.79996 1.9 2.69996C2.2 2.59996 2.5 2.49996 2.7 2.49996H4.4V2.29996H4.3ZM5.9 2.49996V4.09996H2.6C2.5 4.09996 2.4 4.09996 2.4 4.09996C2.3 4.09996 2.3 4.19996 2.2 4.19996C2.1 4.29996 2.1 4.29996 2.1 4.39996C2.1 4.49996 2.1 4.59996 2.1 4.59996V5.59996H13.3V4.59996C13.3 4.49996 13.3 4.39996 13.3 4.39996C13.3 4.29996 13.2 4.29996 13.2 4.19996C13.1 4.09996 13.1 4.09996 13 4.09996C12.9 4.09996 12.8 4.09996 12.8 4.09996H9.5V2.49996H5.9ZM2 20.9H13.2V6.49996H2V20.9ZM2 21.7V22.7C2 23 2.3 23.3 2.6 23.3H12.6C12.9 23.3 13.2 23 13.2 22.7V21.7H2Z" fill="black"/>
<path d="M12.6002 25H2.60019C2.30019 25 2.0002 24.9 1.7002 24.8C1.4002 24.7 1.2002 24.5 0.900196 24.3C0.700196 24.1 0.500196 23.8 0.400196 23.5C0.300196 23.2 0.200195 22.9 0.200195 22.6V4.59998C0.200195 4.29998 0.300196 3.99997 0.400196 3.69997C0.500196 3.39997 0.700196 3.19998 0.900196 2.89998C1.1002 2.69998 1.4002 2.49998 1.7002 2.39998C2.0002 2.29998 2.30019 2.19997 2.60019 2.19997H4.10019V2.09998C4.10019 1.29998 4.80019 0.599976 5.60019 0.599976H9.50019C10.3002 0.599976 11.0002 1.29998 11.0002 2.09998V2.19997H12.5002C12.8002 2.19997 13.1002 2.29998 13.4002 2.39998C13.7002 2.49998 13.9002 2.69998 14.2002 2.89998C14.4002 3.09998 14.6002 3.39997 14.7002 3.69997C14.8002 3.99997 14.9002 4.29998 14.9002 4.59998V22.6C14.9002 22.9 14.8002 23.2 14.7002 23.5C14.6002 23.8 14.4002 24 14.2002 24.3C14.0002 24.5 13.7002 24.7 13.4002 24.8C13.2002 25 12.9002 25 12.6002 25ZM2.60019 2.59998C2.30019 2.59998 2.10019 2.69998 1.80019 2.79998C1.50019 2.89998 1.30019 3.09998 1.10019 3.29998C0.900193 3.49998 0.800193 3.69998 0.600193 3.99998C0.500193 4.29998 0.400196 4.49998 0.400196 4.79998V22.8C0.400196 23.1 0.500193 23.3 0.600193 23.6C0.700193 23.9 0.900193 24.1 1.10019 24.3C1.30019 24.5 1.50019 24.6 1.80019 24.8C2.10019 24.9 2.30019 25 2.60019 25H12.6002C12.9002 25 13.1002 24.9 13.4002 24.8C13.7002 24.7 13.9002 24.5 14.1002 24.3C14.3002 24.1 14.4002 23.9 14.6002 23.6C14.7002 23.3 14.8002 23.1 14.8002 22.8V4.79998C14.8002 4.49998 14.7002 4.29998 14.6002 3.99998C14.5002 3.69998 14.3002 3.49998 14.1002 3.29998C13.9002 3.09998 13.7002 2.99998 13.4002 2.79998C13.1002 2.59998 12.9002 2.59998 12.6002 2.59998H10.8002V2.29998C10.8002 1.59998 10.2002 0.999977 9.50019 0.999977H5.60019C4.90019 0.999977 4.30019 1.59998 4.30019 2.29998V2.59998H2.60019ZM12.6002 23.4H2.60019C2.20019 23.4 1.9002 23.1 1.9002 22.7V21.6H13.3002V22.7C13.3002 23.1 13.0002 23.4 12.6002 23.4ZM2.10019 21.8V22.7C2.10019 23 2.30019 23.2 2.60019 23.2H12.6002C12.9002 23.2 13.1002 23 13.1002 22.7V21.8H2.10019ZM13.3002 21H1.9002V6.39998H13.3002V21ZM2.10019 20.8H13.0002V6.69997H2.10019V20.8ZM13.3002 5.79998H1.9002V4.69997C1.9002 4.59997 1.90019 4.49998 2.00019 4.39998C2.00019 4.29998 2.1002 4.19997 2.2002 4.19997C2.3002 4.09997 2.4002 4.09998 2.4002 3.99998C2.5002 3.99998 2.6002 3.89998 2.7002 3.89998H5.8002V2.29998H9.50019V3.89998H12.6002C12.7002 3.89998 12.8002 3.89998 12.9002 3.99998C13.0002 3.99998 13.1002 4.09997 13.1002 4.19997C13.2002 4.29997 13.2002 4.29998 13.3002 4.39998C13.3002 4.49998 13.4002 4.59997 13.4002 4.69997V5.79998H13.3002ZM2.10019 5.59998H13.0002V4.69997C13.0002 4.59997 13.0002 4.59998 13.0002 4.49998C13.0002 4.39998 12.9002 4.39998 12.9002 4.29998C12.9002 4.29998 12.8002 4.19997 12.7002 4.19997C12.6002 4.19997 12.6002 4.19997 12.5002 4.19997H9.10019V2.59998H6.00019V4.19997H2.60019C2.50019 4.19997 2.5002 4.19997 2.4002 4.19997C2.3002 4.19997 2.3002 4.29998 2.2002 4.29998C2.2002 4.29998 2.10019 4.39998 2.10019 4.49998C2.10019 4.59998 2.10019 4.59997 2.10019 4.69997V5.59998Z" fill="black"/>
</svg>
