<svg width="27" height="27" viewBox="0 0 27 27" fill="none" xmlns="http://www.w3.org/2000/svg">
<path d="M21.0002 26.9H5.40019C4.80019 26.9 4.40019 26.5 4.40019 25.9V22.7H1.2002C0.600195 22.7 0.200195 22.3 0.200195 21.7V9.69997C0.200195 7.59997 1.5002 5.29997 3.60019 3.49997C5.4002 1.99997 7.80019 1.09996 8.10019 0.899963H8.2002C8.3002 0.899963 8.30019 0.899963 8.40019 0.899963H8.50019H18.0002H18.1002C18.2002 0.899963 18.2002 0.899963 18.3002 0.899963H18.4002C18.7002 0.999963 21.0002 1.89997 22.9002 3.49997C25.0002 5.19997 26.3002 7.59997 26.3002 9.69997V21.7C26.3002 22.3 25.9002 22.7 25.3002 22.7H22.0002V25.9C22.0002 26.4 21.5002 26.9 21.0002 26.9ZM14.2002 24.9H20.0002V9.69997C20.0002 9.09997 20.4002 8.69997 21.0002 8.69997C21.6002 8.69997 22.0002 9.09997 22.0002 9.69997V20.7H24.2002V9.69997C24.2002 8.19997 23.2002 6.39998 21.6002 5.09998C20.5002 4.19998 19.2002 3.59997 18.4002 3.19997L14.2002 9.99997V24.9ZM6.40019 24.9H12.2002V9.99997L8.00019 3.19997C7.20019 3.59997 5.90019 4.19998 4.80019 5.09998C3.20019 6.39998 2.2002 8.29997 2.2002 9.69997V20.7H4.40019V9.69997C4.40019 9.09997 4.80019 8.69997 5.40019 8.69997C6.00019 8.69997 6.40019 9.09997 6.40019 9.69997V24.9ZM10.2002 2.89996L13.2002 7.79997L16.2002 2.89996H10.2002Z" fill="black"/>
</svg>
