<svg width="19" height="26" viewBox="0 0 19 26" fill="none" xmlns="http://www.w3.org/2000/svg">
<path d="M14.5002 25.9H3.9002C3.3002 25.9 2.9002 25.5 2.9002 24.9C2.9002 24.3 3.3002 23.9 3.9002 23.9H8.20019V17.9C3.50019 17.5 0.200195 14.4 0.200195 10.3V10.2L1.50019 0.900002C1.60019 0.400002 2.00019 0 2.50019 0H15.8002C16.3002 0 16.7002 0.400002 16.8002 0.900002L18.1002 10.2V10.3C18.1002 14.5 14.8002 17.5 10.1002 17.9V23.9H14.4002C15.0002 23.9 15.4002 24.3 15.4002 24.9C15.4002 25.5 15.1002 25.9 14.5002 25.9ZM2.20019 10.3C2.20019 13.5 5.20019 15.9 9.20019 15.9C13.2002 15.9 16.2002 13.5 16.2002 10.3L15.0002 1.9H3.4002L2.20019 10.3Z" fill="black"/>
</svg>
