<svg width="24" height="24" viewBox="0 0 24 24" fill="none" xmlns="http://www.w3.org/2000/svg">
<path fill-rule="evenodd" clip-rule="evenodd" d="M18.6642 5.33345C18.6642 7.17447 15.6793 8.6669 11.9973 8.6669C8.31528 8.6669 5.3304 7.17447 5.3304 5.33345C5.3304 3.49244 8.31528 2 11.9973 2C15.6793 2 18.6642 3.49244 18.6642 5.33345ZM14.2193 15.8891C14.2193 17.1164 13.2243 18.1114 11.997 18.1114C10.7696 18.1114 9.77471 17.1164 9.77471 15.8891C9.77471 14.6618 10.7696 13.6668 11.997 13.6668C13.2243 13.6668 14.2193 14.6618 14.2193 15.8891ZM17.7972 8.28898C16.3749 9.20013 14.3081 9.77792 11.997 9.77792C9.68579 9.77792 7.61905 9.20013 6.19678 8.28898C5.81899 8.04453 5.33008 8.30009 5.33008 8.74455V12.678C5.33008 12.8114 5.37453 12.9447 5.46342 13.0447C6.08566 13.7558 7.0857 14.3559 8.3413 14.767C8.58575 14.8448 8.88576 14.7225 8.99688 14.4892C9.53023 13.3558 10.6636 12.5558 12.0081 12.5558C13.3526 12.5558 14.4859 13.3447 15.0193 14.4892C15.1304 14.7225 15.4304 14.8448 15.6749 14.767C16.9194 14.3559 17.9305 13.7558 18.5527 13.0447C18.6194 12.9447 18.6639 12.8114 18.6639 12.6669V8.74455C18.6639 8.30009 18.175 8.04453 17.7972 8.28898ZM15.6749 15.9334C16.6527 15.6445 17.5194 15.2667 18.2305 14.7889C18.4194 14.6667 18.6639 14.7889 18.6639 15.0111V18.6668C18.6639 20.5113 15.6749 22.0002 11.997 22.0002C8.31908 22.0002 5.33008 20.5113 5.33008 18.6668V15.0111C5.33008 14.7889 5.57454 14.6667 5.76343 14.7889C6.46346 15.2667 7.33015 15.6556 8.30797 15.9334C8.5302 15.9889 8.67465 16.1778 8.70798 16.4C8.96354 17.989 10.3302 19.2224 11.997 19.2224C13.6637 19.2224 15.0304 18.0001 15.2748 16.4C15.3082 16.1778 15.4637 16 15.6749 15.9334Z" fill="#959595"/>
</svg>
