<svg width="19" height="25" viewBox="0 0 19 25" fill="none" xmlns="http://www.w3.org/2000/svg">
<path d="M16.2006 9.99996C16.2006 12.1 15.2006 14 13.6006 15.2L15.2006 17.3C16.3006 16.5 17.2006 15.4 17.9006 14.1C18.5006 12.8 18.9006 11.5 18.9006 9.99996H16.2006ZM9.70058 3.49996C11.4006 3.49996 13.1006 4.19996 14.3006 5.39996C15.5006 6.59996 16.2006 8.29996 16.2006 9.99996H18.8006C18.8006 7.59996 17.8006 5.29996 16.1006 3.59996C14.4006 1.89996 12.1006 0.899963 9.70058 0.899963V3.49996ZM3.20058 9.99996C3.20058 8.29996 3.90059 6.59996 5.10059 5.39996C6.30059 4.19996 8.00058 3.49996 9.70058 3.49996V0.899963C7.30058 0.899963 5.00059 1.89996 3.30059 3.59996C1.60059 5.29996 0.600586 7.59996 0.600586 9.99996H3.20058ZM5.80059 15.1C5.00059 14.5 4.30059 13.7 3.90059 12.8C3.40059 11.9 3.20058 10.9 3.20058 9.89996H0.600586C0.600586 11.3 0.900586 12.7 1.60059 14C2.20059 15.3 3.10059 16.4 4.30059 17.2L5.80059 15.1ZM8.40059 22.6C8.40059 20.6 8.00058 18.7 7.20058 16.8L4.80059 17.8C5.40059 19.3 5.80059 21 5.80059 22.6H8.40059ZM11.4006 21.9C10.9006 22.2 10.3006 22.3 9.70058 22.3C9.10058 22.3 8.50059 22.2 8.00059 21.9L6.80059 24.2C7.70059 24.6 8.70058 24.9 9.70058 24.9C10.7006 24.9 11.7006 24.7 12.6006 24.2L11.4006 21.9ZM12.2006 16.8C11.4006 18.6 11.0006 20.6 11.0006 22.6L13.6006 22.7C13.6006 21 14.0006 19.4 14.6006 17.9L12.2006 16.8ZM12.6006 24.2C12.9006 24.1 13.1006 23.8 13.3006 23.6C13.5006 23.3 13.6006 23 13.6006 22.7L11.0006 22.6C11.0006 22.5 11.0006 22.3 11.1006 22.2C11.2006 22.1 11.3006 22 11.4006 21.9L12.6006 24.2ZM5.80059 22.6C5.80059 23.3 6.20059 23.9 6.80059 24.2L8.00059 21.9C8.10059 22 8.20059 22.1 8.30059 22.2C8.40059 22.3 8.40059 22.5 8.40059 22.6H5.80059ZM4.30059 17.2C4.50059 17.3 4.60058 17.4 4.70058 17.5C4.80058 17.6 4.80058 17.6 4.70058 17.5L6.70058 15.9C6.50058 15.6 6.10059 15.3 5.80059 15.1L4.30059 17.2ZM7.20058 16.8C7.10058 16.6 7.00058 16.2 6.70058 15.9L4.70058 17.5C4.70058 17.6 4.80059 17.7 4.80059 17.8L7.20058 16.8ZM13.6006 15.1C13.3006 15.3 12.9006 15.6 12.7006 15.9L14.7006 17.5C14.8006 17.4 14.9006 17.3 15.1006 17.2L13.6006 15.1ZM14.6006 17.8L14.7006 17.6V17.5L12.7006 15.9C12.5006 16.2 12.3006 16.5 12.2006 16.8L14.6006 17.8Z" fill="black"/>
<path d="M9.6998 19.9C8.0998 19.9 6.5998 19.4 5.2998 18.6L6.3998 16.9C8.3998 18.2 11.0998 18.2 12.9998 16.9L14.0998 18.6C12.7998 19.4 11.2998 19.9 9.6998 19.9Z" fill="black"/>
</svg>
