<svg width="26" height="25" viewBox="0 0 26 25" fill="none" xmlns="http://www.w3.org/2000/svg">
<path d="M14.3008 18.8999C14.3008 19.1999 14.2008 19.3999 14.1008 19.6999C13.9008 19.8999 13.7008 20.0999 13.5008 20.1999C13.2008 20.2999 13.0008 20.2999 12.7008 20.2999C12.4008 20.1999 12.2008 20.0999 12.0008 19.8999C11.8008 19.6999 11.7008 19.4999 11.6008 19.1999C11.5008 18.8999 11.6008 18.6999 11.7008 18.3999C11.8008 18.0999 12.0008 17.8999 12.2008 17.7999C12.4008 17.6999 12.7008 17.5999 13.0008 17.5999C13.4008 17.5999 13.7008 17.6999 14.0008 17.9999C14.1008 18.1999 14.3008 18.4999 14.3008 18.8999ZM12.9008 6.39994C10.4008 6.39994 8.30083 8.29994 8.30083 10.5999V11.0999C8.30083 11.2999 8.40084 11.5999 8.60084 11.7999C8.80084 11.9999 9.00083 12.0999 9.30083 12.0999C9.50083 12.0999 9.80083 11.9999 10.0008 11.7999C10.2008 11.5999 10.3008 11.3999 10.3008 11.0999V10.5999C10.3008 9.29994 11.5008 8.29994 13.1008 8.29994C14.6008 8.29994 15.9008 9.29994 15.9008 10.5999C15.9008 11.8999 14.7008 12.8999 13.1008 12.8999C12.9008 12.8999 12.6008 12.9999 12.4008 13.1999C12.2008 13.3999 12.1008 13.5999 12.1008 13.8999V14.7999C12.1008 14.9999 12.2008 15.2999 12.4008 15.4999C12.6008 15.6999 12.8008 15.7999 13.1008 15.7999C13.3008 15.7999 13.6008 15.6999 13.8008 15.4999C14.0008 15.2999 14.1008 15.0999 14.1008 14.7999V14.6999C16.2008 14.2999 17.8008 12.5999 17.8008 10.5999C17.5008 8.29994 15.4008 6.39994 12.9008 6.39994ZM24.9008 12.8999C24.9008 15.2999 24.2008 17.5999 22.9008 19.5999C21.6008 21.5999 19.7008 23.0999 17.5008 23.9999C15.3008 24.8999 12.9008 25.0999 10.6008 24.6999C8.30084 24.1999 6.10083 23.0999 4.50083 21.3999C2.80083 19.6999 1.70083 17.5999 1.20083 15.2999C0.700829 12.9999 1.00083 10.5999 1.90083 8.39994C2.80083 6.19994 4.30083 4.29994 6.30083 2.99994C8.30083 1.69994 10.6008 0.999939 13.0008 0.999939C16.2008 0.999939 19.2008 2.29994 21.5008 4.49994C23.6008 6.69994 24.9008 9.69994 24.9008 12.8999ZM23.0008 12.8999C23.0008 10.8999 22.4008 8.89994 21.3008 7.29994C20.2008 5.69994 18.6008 4.29994 16.7008 3.59994C14.8008 2.79994 12.8008 2.59994 10.8008 2.99994C8.80083 3.39994 7.00084 4.39994 5.60084 5.79994C4.20084 7.19994 3.20083 8.99994 2.80083 10.9999C2.40083 12.9999 2.60083 14.9999 3.40083 16.8999C4.20083 18.7999 5.50084 20.2999 7.10084 21.4999C8.80084 22.5999 10.7008 23.1999 12.7008 23.1999C15.4008 23.1999 18.0008 22.0999 19.9008 20.1999C22.0008 18.1999 23.0008 15.5999 23.0008 12.8999Z" fill="black"/>
<path d="M12.9006 25C12.1006 25 11.3006 24.9 10.5006 24.8C8.10063 24.3 6.00064 23.2 4.30064 21.5C2.60064 19.8 1.50063 17.7 1.00063 15.3C0.500633 12.9 0.80063 10.5 1.70063 8.29996C2.60063 6.09997 4.20063 4.19996 6.20063 2.89996C8.20063 1.59996 10.5006 0.899963 12.9006 0.899963C16.1006 0.899963 19.2006 2.19996 21.5006 4.49996C23.8006 6.79996 25.1006 9.79996 25.1006 13.1C25.1006 15.5 24.4006 17.8 23.1006 19.8C21.8006 21.8 19.9006 23.3 17.7006 24.3C16.1006 24.7 14.5006 25 12.9006 25ZM12.9006 0.999962C10.5006 0.999962 8.30064 1.69996 6.30064 2.99996C4.30064 4.29996 2.80063 6.19997 1.90063 8.29996C1.00063 10.4 0.80063 12.8 1.20063 15.2C1.70063 17.5 2.80063 19.6 4.40063 21.3C6.10063 23 8.20063 24.1 10.5006 24.5C12.8006 25 15.2006 24.7 17.4006 23.8C19.6006 22.9 21.4006 21.4 22.7006 19.4C24.0006 17.4 24.7006 15.2 24.7006 12.8C24.7006 9.59997 23.5006 6.59996 21.2006 4.39996C19.0006 2.29996 16.1006 0.999962 12.9006 0.999962ZM12.9006 23.2C10.9006 23.2 8.90063 22.6 7.20063 21.5C5.50063 20.4 4.20063 18.8 3.40063 16.9C2.60063 15 2.40064 13 2.80064 11C3.20064 8.99996 4.20064 7.19996 5.60064 5.69996C7.00064 4.29996 8.90063 3.29996 10.9006 2.89996C12.9006 2.49996 15.0006 2.69996 16.8006 3.49996C18.7006 4.29996 20.3006 5.59997 21.4006 7.29996C22.5006 8.99996 23.1006 11 23.1006 13C23.1006 15.7 22.0006 18.3 20.1006 20.3C18.2006 22.1 15.6006 23.2 12.9006 23.2ZM12.9006 2.89996C12.2006 2.89996 11.6006 2.99996 10.9006 3.09996C8.90063 3.49996 7.20064 4.39996 5.80064 5.79996C4.40064 7.19997 3.40064 8.99996 3.10064 10.9C2.70064 12.9 2.90063 14.9 3.70063 16.7C4.50063 18.5 5.70063 20.1 7.40063 21.2C9.10063 22.3 11.0006 22.9 13.0006 22.9C15.7006 22.9 18.2006 21.9 20.1006 20C22.0006 18.1 23.0006 15.6 23.0006 12.9C23.0006 10.9 22.4006 8.99996 21.3006 7.29996C20.2006 5.59997 18.6006 4.39996 16.8006 3.59996C15.5006 3.09996 14.2006 2.89996 12.9006 2.89996ZM12.9006 20.4C12.8006 20.4 12.7006 20.4 12.6006 20.4C12.3006 20.3 12.0006 20.2 11.8006 20C11.6006 19.8 11.4006 19.5 11.4006 19.2C11.3006 18.9 11.4006 18.6 11.5006 18.3C11.6006 18 11.8006 17.8 12.1006 17.6C12.4006 17.4 12.6006 17.3 12.9006 17.3C13.3006 17.3 13.7006 17.5 14.0006 17.7C14.3006 18 14.4006 18.4 14.4006 18.8C14.4006 19.1 14.3006 19.4 14.1006 19.6C13.9006 19.8 13.7006 20 13.4006 20.2C13.3006 20.4 13.1006 20.4 12.9006 20.4ZM12.9006 17.6C12.7006 17.6 12.4006 17.7 12.2006 17.8C12.0006 17.9 11.8006 18.1 11.7006 18.4C11.6006 18.6 11.6006 18.9 11.6006 19.1C11.6006 19.3 11.8006 19.6 11.9006 19.7C12.1006 19.9 12.3006 20 12.5006 20C12.7006 20 13.0006 20 13.2006 19.9C13.4006 19.8 13.6006 19.6 13.8006 19.4C13.9006 19.2 14.0006 19 14.0006 18.7C14.0006 18.4 13.9006 18 13.6006 17.8C13.5006 17.8 13.2006 17.6 12.9006 17.6ZM12.9006 15.8C12.6006 15.8 12.4006 15.7 12.2006 15.5C12.0006 15.3 11.9006 15 11.9006 14.8V13.9C11.9006 13.6 12.0006 13.4 12.2006 13.2C12.4006 13 12.7006 12.9 12.9006 12.9C14.4006 12.9 15.5006 11.9 15.5006 10.7C15.5006 9.49996 14.3006 8.49996 12.9006 8.49996C11.5006 8.49996 10.3006 9.49996 10.3006 10.7V11.2C10.3006 11.5 10.2006 11.7 10.0006 11.9C9.80063 12.1 9.50064 12.2 9.30064 12.2C9.00064 12.2 8.80064 12.1 8.60064 11.9C8.40064 11.7 8.30064 11.4 8.30064 11.2V10.7C8.30064 8.29996 10.4006 6.39996 13.0006 6.39996C15.6006 6.39996 17.7006 8.29996 17.7006 10.7C17.7006 12.7 16.2006 14.4 14.0006 14.9C14.0006 15.2 13.9006 15.4 13.7006 15.6C13.4006 15.7 13.2006 15.8 12.9006 15.8ZM12.9006 8.19996C14.5006 8.19996 15.8006 9.29996 15.8006 10.6C15.8006 11.9 14.5006 13 12.9006 13C12.7006 13 12.5006 13.1 12.3006 13.2C12.1006 13.4 12.1006 13.6 12.1006 13.8V14.7C12.1006 14.9 12.2006 15.1 12.3006 15.3C12.6006 15.6 13.1006 15.6 13.4006 15.3C13.5006 15.2 13.6006 14.9 13.6006 14.7V14.5H13.7006C15.8006 14.1 17.3006 12.5 17.3006 10.6C17.3006 8.39996 15.3006 6.59996 12.8006 6.59996C10.3006 6.59996 8.30064 8.39996 8.30064 10.6V11.1C8.30064 11.3 8.40063 11.5 8.50063 11.7C8.80063 12 9.30064 12 9.60064 11.7C9.80064 11.5 9.80064 11.3 9.80064 11.1V10.6C10.0006 9.19996 11.3006 8.19996 12.9006 8.19996Z" fill="black"/>
</svg>
