<svg width="18" height="25" viewBox="0 0 18 25" fill="none" xmlns="http://www.w3.org/2000/svg">
<path fill-rule="evenodd" clip-rule="evenodd" d="M14.9 1.7L14.8 1.9L15.8 2.5L15.9 2.3L14.9 1.7ZM15.3 4.2L13.6 3.2L10.6 4.7C9.39998 5.3 8.49998 6.3 8.09998 7.5H8.19997C8.89997 7.2 9.59997 7 10.3 7.1C11 7.2 11.7 7.5 12.3 7.9C12.9 8.4 13.7 8.5 14.4 8.3L15.6 7.9V7.8L15.3 4.2ZM17.2 8.7C17.3 8.5 17.3 8.4 17.2 8.2C17.2 8.1 17.2 7.9 17.2 7.8V7.6L16.9 3.9L17.3 3.2C17.4 3.1 17.4 3 17.5 2.8C17.6 2.7 17.6 2.5 17.6 2.3C17.6 2 17.5 1.7 17.4 1.5C17.3 1.3 17.2 1.2 17 1.1C16.9 0.999998 16.8 1 16.7 0.900002L15.8 0.400002C15.7 0.300002 15.6 0.299997 15.4 0.199997C15.2 0.0999969 15 0.1 14.8 0C14.5 0 14.2 0.0999969 13.9 0.199997C13.7 0.299997 13.6 0.399998 13.5 0.599998C13.4 0.699998 13.4 0.8 13.3 1L12.9 1.7L9.69997 3.3L9.49997 3.4C7.69997 4.3 6.39997 6.1 5.99997 8.2C5.99997 8.3 5.99997 8.3 5.99997 8.4V8.6C5.69997 10.3 4.89998 11.8 3.59998 13L2.69997 13.9C2.09997 14.5 1.69997 14.9 1.29997 15.3C0.999973 15.7 0.69997 16.1 0.49997 16.5C0.29997 17.1 0.199973 17.7 0.299973 18.3C0.399973 18.9 0.599964 19.5 0.899964 20C1.19996 20.4 1.49997 20.7 1.99997 21C2.39997 21.3 2.99998 21.6 3.59998 22L4.39996 22.5C5.09996 22.9 5.59998 23.2 6.09998 23.5C6.59998 23.7 6.99997 23.9 7.49997 24C8.09997 24.1 8.69997 24 9.29997 23.7C9.89997 23.4 10.4 23.1 10.7 22.6C11 22.2 11.2 21.8 11.3 21.3C11.4 20.8 11.6 20.2 11.8 19.4L12.1 18.1V17.9C12.5 16.2 13.4 14.7 14.7 13.6L14.9 13.5C16.3 12.1 17.1 10.4 17.2 8.7ZM15.4 9.7L14.9 9.9C14.3 10.1 13.6 10.2 13 10C12.4 9.9 11.8 9.6 11.3 9.2C11 8.9 10.6 8.8 10.2 8.7C9.79997 8.7 9.39997 8.7 8.99997 8.9L7.69997 9.6C7.29997 11.2 6.39997 12.7 5.19997 13.9L5.09998 14L4.19997 14.9C3.59997 15.5 3.19996 15.9 2.89996 16.2C2.59996 16.5 2.49996 16.7 2.39996 16.9C2.09996 17.6 2.19998 18.3 2.59998 18.9C2.69998 19 2.89997 19.2 3.19997 19.5C3.59997 19.8 4.09997 20.1 4.79997 20.5L5.49997 21C6.19997 21.4 6.69998 21.7 7.09998 21.9C7.49998 22.1 7.69996 22.2 7.89996 22.2C8.59996 22.3 9.19998 22 9.59998 21.4C9.69998 21.3 9.79996 21 9.89996 20.6C9.99996 20.2 10.2 19.6 10.4 18.7L10.7 17.5V17.3C11.2 15.4 12.2 13.6 13.7 12.3L13.9 12.2L14 12.1C14.6 11.4 15.1 10.6 15.4 9.7Z" fill="black"/>
</svg>
