<svg width="25" height="25" viewBox="0 0 25 25" fill="none" xmlns="http://www.w3.org/2000/svg">
<path d="M1.50019 23.9C1.10019 23.9 0.800195 23.8 0.600195 23.5C0.400195 23.2 0.200195 22.9 0.200195 22.6C0.200195 22.2 0.300195 21.9 0.600195 21.7C0.900195 21.4 1.20019 21.3 1.50019 21.3H2.80019V13.3H1.50019C1.10019 13.3 0.800195 13.2 0.600195 12.9C0.400195 12.6 0.200195 12.3 0.200195 12C0.200195 11.6 0.300195 11.3 0.600195 11.1C0.900195 10.8 1.20019 10.7 1.50019 10.7H2.80019V2.69998H1.50019C1.10019 2.69998 0.800195 2.59997 0.600195 2.29997C0.300195 1.99997 0.200195 1.69997 0.200195 1.39997C0.200195 0.999975 0.300195 0.699975 0.600195 0.499975C0.900195 0.199975 1.20019 0.0999756 1.50019 0.0999756H22.8002C23.2002 0.0999756 23.5002 0.199975 23.8002 0.499975C24.1002 0.799975 24.2002 1.09997 24.2002 1.39997C24.2002 1.79997 24.1002 2.09997 23.8002 2.39997C23.5002 2.69997 23.2002 2.79997 22.9002 2.79997H21.6002V10.8H22.9002C23.3002 10.8 23.6002 10.9 23.9002 11.2C24.2002 11.5 24.3002 11.8 24.3002 12.1C24.3002 12.5 24.2002 12.8 23.9002 13.1C23.6002 13.4 23.3002 13.5 23.0002 13.5H21.7002V21.5H23.0002C23.4002 21.5 23.7002 21.6 24.0002 21.9C24.3002 22.2 24.4002 22.5 24.4002 22.8C24.4002 23.2 24.3002 23.5 24.0002 23.8C23.7002 24.1 23.4002 24.2 23.1002 24.2H1.50019V23.9ZM5.50019 21.2H18.8002V13.2C18.4002 13.2 18.1002 13.1 17.9002 12.8C17.7002 12.5 17.5002 12.2 17.5002 11.9C17.5002 11.5 17.6002 11.2 17.9002 11C18.2002 10.8 18.5002 10.6 18.8002 10.6V2.59998H5.50019V10.6C5.90019 10.6 6.20019 10.7 6.50019 11C6.80019 11.3 6.90019 11.6 6.90019 11.9C6.90019 12.3 6.80019 12.6 6.50019 12.9C6.20019 13.2 5.90019 13.3 5.60019 13.3V21.2H5.50019Z" fill="black"/>
</svg>
